# xmcd
# 
# Track frame offsets:
#     150
#     19090
#     36305
#     50533
#     63393
#     78795
#     92193
#     106948
#     118875
#     134388
#     169743
# 
# Disc length: 2461
# 
# Revision: 42
# Processed by: cddbd v1.5.2PL0 Copyright (c) Steve Scherf et al.
# Submitted via: fre:ac v1.0.31
# 
DISCID=90099b0b
DTITLE=The Blues Brothers - The Blues Brothers (OST)
DYEAR=1980
DGENRE=Rock and Roll
TTITLE0=blues brothers - she caught the katy
TTITLE1=blues brothers - peter gunn theme
TTITLE2=blues brothers - gimme some lovin'
TTITLE3=blues brothers - shake your tailfeather
TTITLE4=blues brothers - everybody needs somebody to love
TTITLE5=blues brothers - the old landmark
TTITLE6=blues brothers - think
TTITLE7=blues brothers - theme from rawhide
TTITLE8=blues brothers - minnie the moocher
TTITLE9=blues brothers - sweet home chicago
TTITLE10=blues brothers - jailhouse rock
EXTD=Cast/Vocals (IMDB):\nJohn Belushi: 'Joliet' Jake Blues\nDan Aykroyd: Elwood Blues\nJames Brown: Reverend Cleophus James\nCab Calloway: Curtis\nRay Charles: Ray\nAretha Franklin: Mrs. Murphy\n\nAtlantic 7567-81471-2 YEAR: 1980
EXTT0=Jake\nby Taj Mahal and Yank Rachel
EXTT1=by Henry Mancini
EXTT2=Jake\nby Spencer Davis, Muff Winwood and Steve Winwood
EXTT3=
EXTT4=
EXTT5=
EXTT6=
EXTT7=
EXTT8=
EXTT9=
EXTT10=
PLAYORDER=
